<?xml version="1.0" standalone="no"?>
<!DOCTYPE svg PUBLIC "-//W3C//DTD SVG 20010904//EN"
 "http://www.w3.org/TR/2001/REC-SVG-20010904/DTD/svg10.dtd">
<svg version="1.0" xmlns="http://www.w3.org/2000/svg"
 width="360.000000pt" height="360.000000pt" viewBox="0 0 360.000000 360.000000"
 preserveAspectRatio="xMidYMid meet">

<g transform="translate(0.000000,360.000000) scale(0.100000,-0.100000)"
fill="#000000" stroke="none">
<path d="M1638 2961 c-83 -12 -132 -88 -94 -146 9 -13 16 -38 16 -55 0 -44 50
-94 87 -87 14 2 40 1 59 -4 67 -19 134 36 134 110 0 40 -18 77 -47 96 -12 9
-23 24 -23 35 0 27 -35 60 -62 59 -13 -1 -44 -5 -70 -8z m99 -37 l26 -27 -29
-12 -29 -13 27 -1 c15 -1 39 -12 55 -25 23 -20 28 -32 27 -67 -2 -59 -41 -94
-93 -84 -20 4 -53 7 -73 6 -30 -1 -41 4 -54 24 -15 23 -15 29 -2 70 14 41 9
61 -8 34 -4 -8 -9 -7 -15 2 -16 25 -9 50 21 81 26 26 36 30 65 25 19 -3 35 -2
35 4 0 17 21 9 47 -17z"/>
<path d="M2125 2860 c-3 -5 -16 -10 -29 -10 -41 0 -60 -24 -68 -89 -6 -52 26
-79 93 -79 62 0 89 11 89 36 0 9 7 26 15 36 22 29 18 64 -10 91 -25 26 -78 34
-90 15z m77 -27 c22 -20 23 -35 2 -89 -19 -51 -44 -60 -81 -31 -22 18 -26 19
-20 4 9 -24 -18 -22 -44 4 -14 14 -19 28 -14 42 3 12 7 31 8 42 2 22 47 35 47
13 0 -7 7 -2 16 10 18 26 60 29 86 5z"/>
<path d="M1857 2674 c9 -15 19 -21 21 -15 4 13 -16 41 -29 41 -5 0 -2 -12 8
-26z"/>
<path d="M1990 2680 c-32 -32 -23 -47 10 -15 17 16 30 30 30 32 0 10 -23 0
-40 -17z"/>
<path d="M1831 2663 c7 -12 15 -20 18 -17 3 2 -3 12 -13 22 -17 16 -18 16 -5
-5z"/>
<path d="M2010 2648 c-12 -22 -12 -22 6 -6 10 10 15 20 12 24 -4 3 -12 -5 -18
-18z"/>
<path d="M1050 2620 c-8 -5 -24 -10 -36 -10 -29 0 -51 -28 -59 -77 -6 -36 -3
-46 17 -66 20 -20 35 -24 80 -25 63 0 73 7 102 74 15 35 16 45 5 65 -24 45
-72 63 -109 39z m87 -36 c15 -24 15 -28 1 -57 -9 -18 -19 -40 -22 -49 -7 -23
-53 -24 -78 -1 -18 16 -18 16 -12 0 9 -24 -18 -22 -41 3 -15 16 -16 27 -9 62
6 28 15 44 27 46 11 2 17 -3 17 -15 1 -14 4 -11 16 10 20 38 76 39 101 1z"/>
<path d="M1354 2605 c-10 -8 -33 -15 -49 -15 -38 0 -55 -16 -55 -49 -1 -15 -6
-36 -14 -49 -11 -21 -14 -22 -25 -8 -8 9 -23 16 -35 15 -16 0 -11 -5 19 -20
50 -25 73 -66 48 -84 -9 -7 -24 -10 -34 -8 -46 12 -83 -90 -54 -147 16 -30 53
-47 80 -36 36 13 -1 -18 -41 -36 -49 -21 -52 -27 -25 -52 18 -17 18 -18 -2
-69 -12 -29 -22 -53 -23 -55 -1 -2 -23 19 -48 46 -57 60 -102 85 -129 70 -15
-8 -18 -17 -14 -44 5 -31 4 -33 -13 -24 -28 15 -70 12 -77 -6 -10 -27 15 -62
71 -100 47 -31 55 -40 50 -59 -3 -13 -1 -26 5 -29 5 -4 7 -22 4 -41 -5 -30 -2
-36 28 -54 19 -12 51 -21 71 -21 29 0 38 -5 43 -21 6 -19 12 -21 54 -15 68 10
71 10 131 -12 62 -23 55 -7 109 -247 l27 -120 51 -6 c29 -4 68 -17 87 -29 l36
-22 127 32 c76 19 176 36 252 42 69 6 131 12 137 13 7 2 13 66 17 187 3 100 9
193 13 206 5 19 13 22 59 22 36 0 66 8 99 25 42 23 52 24 85 14 42 -13 81 0
81 26 0 10 10 15 29 15 15 0 43 10 62 23 28 19 34 30 37 62 1 22 3 47 3 55 1
8 -1 22 -5 30 -4 10 3 21 23 33 99 58 125 181 28 132 -39 -19 -37 -20 -31 13
4 19 0 32 -11 42 -24 20 -75 -10 -126 -77 -42 -54 -59 -65 -59 -38 0 29 -31
76 -55 85 -16 6 -34 6 -50 0 l-26 -10 22 -42 c30 -58 21 -160 -17 -195 -25
-23 -25 -30 -7 -80 8 -21 -46 -27 -82 -10 l-34 16 26 93 c13 51 40 133 59 182
19 50 33 95 30 102 -5 12 -204 114 -223 114 -6 0 -8 20 -5 50 4 46 2 52 -32
86 -20 20 -36 44 -36 54 0 10 -12 28 -26 39 -22 18 -35 20 -83 15 -31 -3 -68
-14 -82 -24 -26 -19 -28 -18 -65 1 -55 28 -122 25 -169 -7 -45 -31 -81 -27
-127 11 -34 28 -84 33 -114 10z m103 -31 c17 -17 23 -32 20 -47 -14 -58 -37
-103 -59 -116 -23 -13 -28 -12 -56 7 -36 26 -43 27 -36 7 9 -22 -22 -19 -46 5
-19 19 -25 40 -20 65 1 6 3 21 4 35 2 15 13 30 27 37 21 11 25 10 30 -10 l5
-22 14 25 c7 14 18 28 24 32 23 16 67 7 93 -18z m535 -8 c12 -18 9 -24 -12
-31 -28 -9 -25 -23 4 -18 17 4 33 -3 50 -20 36 -36 36 -98 0 -134 -22 -22 -31
-25 -67 -19 -23 4 -56 7 -73 6 -43 -1 -66 27 -60 74 3 21 10 44 17 52 7 9 8
14 1 14 -6 0 -14 -5 -17 -10 -10 -17 -25 -1 -25 26 0 15 13 38 30 56 26 26 36
30 65 25 20 -3 35 -2 35 4 0 11 41 -8 52 -25z m-254 -6 c36 -16 42 -23 42 -50
0 -17 4 -39 9 -49 9 -16 1 -18 -107 -19 -64 -1 -138 -5 -164 -10 -42 -8 -48
-7 -48 7 0 10 7 26 15 37 8 10 15 26 15 35 0 9 9 19 20 22 17 4 20 0 20 -28 0
-19 5 -37 10 -40 6 -3 10 4 10 17 0 33 27 67 64 84 42 18 63 17 114 -6z m-85
-183 c8 -33 5 -46 -17 -87 -22 -41 -56 -131 -56 -150 0 -3 13 18 29 45 16 28
38 58 49 68 19 18 20 17 26 -20 4 -21 9 -46 12 -55 3 -11 -5 -22 -24 -34 -40
-23 -62 -64 -62 -113 0 -33 7 -49 35 -79 19 -22 49 -44 67 -50 33 -11 32 -12
-12 -7 -36 3 -41 2 -26 -7 11 -6 73 -13 138 -16 l118 -5 0 -47 c0 -54 -8 -60
-71 -60 l-39 0 -1 48 -2 47 -10 -47 c-10 -45 -12 -48 -41 -47 -69 2 -81 11
-86 64 l-6 50 -8 -55 c-5 -38 -3 -73 7 -115 l15 -60 1 55 1 56 56 -10 56 -11
-5 -33 c-7 -39 9 -34 18 7 6 27 10 29 60 33 l54 3 -5 -30 -5 -30 17 32 c14 26
69 61 80 50 1 -1 -1 -18 -5 -37 l-7 -35 -94 -18 c-52 -9 -141 -29 -197 -42
-56 -14 -105 -25 -107 -25 -3 0 5 21 17 48 16 36 21 65 20 125 0 43 -4 82 -9
87 -5 5 -8 -24 -7 -68 2 -92 -6 -64 -32 113 -20 132 -79 383 -105 443 -14 31
-16 44 -7 47 32 10 56 13 107 12 l54 -2 9 -38z m-263 -7 c0 -17 -15 -11 -28
11 -12 19 -11 19 8 9 11 -6 20 -15 20 -20z m50 15 c-7 -9 -15 -13 -19 -10 -3
3 1 10 9 15 21 14 24 12 10 -5z m-98 -12 c21 -19 24 -62 4 -88 -8 -11 -12 -25
-9 -31 2 -7 -7 -20 -21 -29 -24 -16 -27 -16 -55 4 -35 25 -42 26 -35 6 9 -22
-22 -19 -46 5 -21 21 -27 65 -9 75 6 4 8 13 5 20 -5 15 12 35 31 35 7 0 13 -7
13 -16 0 -12 6 -10 21 10 24 31 72 35 101 9z m757 -34 c17 -6 31 -13 31 -16 0
-14 -23 -93 -27 -93 -3 0 -18 11 -35 25 -50 43 -94 31 -128 -34 -12 -23 -12
-23 11 -7 31 21 51 20 99 -4 30 -16 40 -26 40 -45 0 -29 -3 -30 -36 -9 -17 12
-39 15 -73 12 -56 -6 -52 -12 -67 111 -7 51 -6 54 12 47 43 -17 71 -16 104 2
19 11 35 20 36 21 1 0 15 -4 33 -10z m-655 -324 c38 -202 61 -346 101 -627 5
-35 3 -38 -20 -38 -22 0 -25 4 -25 39 0 59 -47 323 -76 430 -36 134 -82 268
-111 324 -13 27 -23 50 -21 51 2 1 15 7 31 14 15 6 27 19 27 30 0 9 8 28 17
42 l17 24 8 -25 c4 -13 28 -132 52 -264z m1181 195 c8 -14 -21 -73 -51 -101
-42 -40 -28 -53 19 -17 57 46 93 68 112 68 25 0 17 -27 -20 -63 -39 -38 -80
-60 -142 -77 -45 -11 -73 -44 -54 -63 6 -6 7 -16 1 -27 -11 -20 9 -42 50 -59
23 -9 21 -10 -18 -10 -46 -1 -105 19 -135 47 -17 15 -18 26 -12 113 6 78 4
102 -9 127 -18 34 -8 49 23 33 20 -11 51 -78 51 -111 0 -32 17 -23 51 27 36
52 104 123 118 123 6 0 13 -4 16 -10z m-565 -75 c69 -36 76 -120 14 -174 -69
-61 -174 -28 -191 59 -6 34 -6 35 14 18 11 -10 27 -18 36 -18 22 0 47 27 47
52 0 17 -3 18 -15 8 -12 -10 -16 -9 -21 3 -3 9 -3 21 1 27 3 5 0 10 -7 10 -8
1 -6 6 6 15 26 19 79 19 116 0z m-260 -10 c39 -20 63 -68 56 -110 -14 -74
-124 -122 -184 -79 -24 17 -52 64 -52 89 0 15 2 15 22 1 28 -20 43 -20 62 0
25 24 21 53 -6 46 -18 -4 -20 -2 -16 16 5 16 2 22 -10 22 -12 1 -10 5 8 15 33
19 84 19 120 0z m-702 -122 c31 -34 60 -60 64 -57 4 3 8 19 8 35 0 44 25 96
50 104 30 9 31 5 14 -43 -12 -38 -12 -51 1 -108 8 -36 15 -75 15 -88 0 -33
-52 -77 -107 -91 -58 -15 -89 -8 -45 10 36 16 46 30 37 53 -4 9 -8 28 -9 42
-1 28 -36 50 -81 50 -38 0 -129 52 -151 85 -33 50 8 46 100 -10 68 -41 85 -38
38 6 -44 42 -65 76 -58 95 5 14 9 13 37 -3 17 -10 57 -46 87 -80z m1507 -18
c0 -16 -8 -21 -39 -23 -52 -4 -72 4 -56 23 12 15 42 23 75 21 13 -1 20 -8 20
-21z m-1305 -112 c0 -7 -6 -10 -14 -7 -12 5 -37 76 -36 101 1 12 49 -80 50
-94z m1050 54 c0 -19 39 -54 82 -71 65 -27 58 -55 -8 -37 -50 14 -94 57 -94
93 0 15 5 28 10 28 6 0 10 -6 10 -13z m260 -6 c0 -13 -9 -21 -30 -26 -36 -8
-70 2 -70 20 0 17 16 23 63 24 30 1 37 -3 37 -18z m-600 -22 c-39 -11 -60 -10
-60 4 0 9 12 11 43 8 37 -4 39 -5 17 -12z m-914 -24 c16 -13 17 -16 4 -25 -37
-24 -114 0 -95 30 9 15 68 12 91 -5z m954 -15 c0 -22 -15 -27 -23 -7 -3 6 -6
-7 -6 -29 -1 -38 -3 -42 -33 -48 -17 -3 -32 -5 -33 -4 -1 2 -5 24 -9 50 l-7
47 33 3 c18 2 43 4 56 5 16 2 22 -2 22 -17z m-763 -75 c-18 -38 -69 -75 -104
-75 -31 0 -29 16 5 37 47 29 82 66 82 87 0 19 1 19 17 3 16 -16 16 -19 0 -52z
m1073 35 c0 -16 -80 -50 -115 -49 -28 1 -27 2 10 11 22 6 51 19 65 29 29 21
40 23 40 9z m-1246 -9 c11 -16 -22 -32 -61 -29 -27 2 -39 8 -41 21 -3 14 4 17
47 17 27 0 52 -4 55 -9z m221 -49 c-11 -11 -27 17 -20 35 6 16 8 16 16 -6 5
-13 7 -26 4 -29z m701 -59 c-11 -11 -17 4 -9 23 7 18 8 18 11 1 2 -10 1 -21
-2 -24z m-703 5 c29 -11 38 -31 10 -22 -51 16 -73 27 -73 36 0 6 8 7 18 3 9
-4 29 -12 45 -17z m728 -177 l14 -149 -70 -5 c-38 -3 -71 -4 -73 -2 -2 1 2 67
7 145 7 96 15 146 23 152 7 4 29 8 49 8 l35 0 15 -149z m-305 12 c-4 -49 -9
-113 -12 -145 l-6 -56 -45 -11 c-25 -7 -47 -11 -48 -9 -1 2 -5 65 -9 140 l-6
137 47 15 c87 27 86 28 79 -71z"/>
<path d="M2450 1981 c0 -11 -3 -28 -7 -38 -6 -16 -5 -16 10 -4 18 14 23 61 7
61 -5 0 -10 -9 -10 -19z"/>
<path d="M1151 1874 c-1 -17 6 -37 14 -44 18 -15 18 -7 0 40 l-13 35 -1 -31z"/>
<path d="M2212 2525 c-12 -9 -26 -14 -31 -11 -19 12 -51 -30 -57 -75 -9 -66
14 -88 93 -88 32 0 64 5 71 11 18 15 42 75 42 103 0 54 -73 92 -118 60z m80
-22 c19 -17 25 -68 8 -78 -5 -3 -10 -15 -10 -26 0 -11 -11 -24 -25 -31 -20 -9
-28 -8 -43 5 -20 19 -37 23 -27 7 10 -16 -31 -12 -44 4 -13 15 -11 82 3 104
11 18 36 15 37 -5 0 -14 2 -15 6 -3 14 39 64 52 95 23z"/>
<path d="M1170 2460 c8 -5 20 -10 25 -10 6 0 3 5 -5 10 -8 5 -19 10 -25 10 -5
0 -3 -5 5 -10z"/>
<path d="M1187 1113 c10 -36 10 -188 0 -235 l-8 -38 35 0 35 0 -14 41 c-8 23
-15 53 -15 68 0 40 33 92 70 113 53 28 59 7 17 -54 -59 -85 -49 -168 20 -168
32 0 35 2 29 23 -33 106 1 195 78 209 30 5 29 -16 -4 -56 -38 -49 -51 -96 -39
-141 10 -33 12 -35 56 -35 l45 0 -7 36 c-8 46 -8 162 1 220 l6 44 -35 0 c-37
0 -87 -32 -87 -56 0 -8 -4 -14 -10 -14 -5 0 -10 8 -10 18 0 36 -32 52 -103 52
l-67 0 7 -27z"/>
<path d="M1617 1129 c-27 -16 -57 -87 -57 -137 0 -112 85 -187 156 -137 70 49
72 220 3 269 -27 18 -75 21 -102 5z m131 -82 c2 -19 -7 -38 -38 -70 -62 -68
-130 -87 -130 -37 0 40 121 147 155 136 6 -1 11 -14 13 -29z"/>
<path d="M1830 1131 c0 -5 7 -28 16 -52 8 -24 18 -87 22 -139 l7 -95 67 -3 68
-3 -6 58 c-6 54 12 148 41 226 6 14 1 17 -30 17 -34 0 -37 -2 -31 -22 25 -85
14 -141 -35 -183 -31 -25 -69 -34 -69 -15 0 6 16 33 35 61 25 37 35 62 35 89
0 64 -6 70 -66 70 -30 0 -54 -4 -54 -9z"/>
<path d="M2118 1103 c9 -50 9 -168 -1 -220 l-7 -43 35 0 c34 0 35 1 28 28 -10
34 -10 197 -1 240 7 31 7 32 -27 32 -34 0 -34 0 -27 -37z"/>
<path d="M2257 1088 c10 -67 10 -107 0 -185 l-8 -63 86 0 85 0 0 46 c0 40 -2
45 -17 38 -10 -4 -42 -10 -70 -12 -57 -4 -66 6 -40 43 11 15 22 17 55 11 37
-5 42 -4 42 12 0 29 -10 32 -48 16 -44 -18 -54 -9 -41 39 13 47 26 53 74 33
21 -9 39 -16 41 -16 2 0 4 20 4 45 l0 45 -85 0 -86 0 8 -52z"/>
</g>
</svg>
